<mxfile host="app.diagrams.net" modified="2023-05-24T06:57:01.156Z" agent="Mozilla/5.0 (Macintosh; Intel Mac OS X 10_15_7) AppleWebKit/537.36 (KHTML, like Gecko) Chrome/112.0.0.0 Safari/537.36" etag="h1Qd06tsXF4lrYJPCkkR" version="21.3.2" type="github">
  <diagram id="C5RBs43oDa-KdzZeNtuy" name="Page-1">
    <mxGraphModel dx="954" dy="562" grid="1" gridSize="10" guides="1" tooltips="1" connect="1" arrows="1" fold="1" page="1" pageScale="1" pageWidth="827" pageHeight="1169" math="0" shadow="0">
      <root>
        <mxCell id="WIyWlLk6GJQsqaUBKTNV-0" />
        <mxCell id="WIyWlLk6GJQsqaUBKTNV-1" parent="WIyWlLk6GJQsqaUBKTNV-0" />
        <mxCell id="_507XFUVvniMtryG3IeK-1" style="edgeStyle=orthogonalEdgeStyle;rounded=0;orthogonalLoop=1;jettySize=auto;html=1;entryX=0.5;entryY=0;entryDx=0;entryDy=0;" edge="1" parent="WIyWlLk6GJQsqaUBKTNV-1" source="WIyWlLk6GJQsqaUBKTNV-3" target="_507XFUVvniMtryG3IeK-0">
          <mxGeometry relative="1" as="geometry" />
        </mxCell>
        <mxCell id="WIyWlLk6GJQsqaUBKTNV-3" value="用户登录" style="rounded=1;whiteSpace=wrap;html=1;fontSize=12;glass=0;strokeWidth=1;shadow=0;" parent="WIyWlLk6GJQsqaUBKTNV-1" vertex="1">
          <mxGeometry x="240" y="80" width="120" height="40" as="geometry" />
        </mxCell>
        <mxCell id="_507XFUVvniMtryG3IeK-22" style="edgeStyle=orthogonalEdgeStyle;rounded=0;orthogonalLoop=1;jettySize=auto;html=1;" edge="1" parent="WIyWlLk6GJQsqaUBKTNV-1" source="WIyWlLk6GJQsqaUBKTNV-12" target="_507XFUVvniMtryG3IeK-21">
          <mxGeometry relative="1" as="geometry" />
        </mxCell>
        <mxCell id="WIyWlLk6GJQsqaUBKTNV-12" value="刷新token" style="rounded=1;whiteSpace=wrap;html=1;fontSize=12;glass=0;strokeWidth=1;shadow=0;" parent="WIyWlLk6GJQsqaUBKTNV-1" vertex="1">
          <mxGeometry x="414" y="320" width="86" height="40" as="geometry" />
        </mxCell>
        <mxCell id="_507XFUVvniMtryG3IeK-5" style="edgeStyle=orthogonalEdgeStyle;rounded=0;orthogonalLoop=1;jettySize=auto;html=1;" edge="1" parent="WIyWlLk6GJQsqaUBKTNV-1" source="_507XFUVvniMtryG3IeK-0" target="_507XFUVvniMtryG3IeK-4">
          <mxGeometry relative="1" as="geometry" />
        </mxCell>
        <mxCell id="_507XFUVvniMtryG3IeK-0" value="code获取token并缓存redis" style="rounded=1;whiteSpace=wrap;html=1;fontSize=12;glass=0;strokeWidth=1;shadow=0;" vertex="1" parent="WIyWlLk6GJQsqaUBKTNV-1">
          <mxGeometry x="240" y="150" width="120" height="40" as="geometry" />
        </mxCell>
        <mxCell id="_507XFUVvniMtryG3IeK-3" value="token有效时长为15天" style="text;html=1;strokeColor=#d6b656;fillColor=#fff2cc;align=center;verticalAlign=middle;whiteSpace=wrap;rounded=0;dashed=1;" vertex="1" parent="WIyWlLk6GJQsqaUBKTNV-1">
          <mxGeometry x="20" y="140" width="180" height="60" as="geometry" />
        </mxCell>
        <mxCell id="_507XFUVvniMtryG3IeK-6" style="edgeStyle=orthogonalEdgeStyle;rounded=0;orthogonalLoop=1;jettySize=auto;html=1;entryX=1;entryY=0.5;entryDx=0;entryDy=0;exitX=1;exitY=0.5;exitDx=0;exitDy=0;exitPerimeter=0;" edge="1" parent="WIyWlLk6GJQsqaUBKTNV-1" source="_507XFUVvniMtryG3IeK-4" target="WIyWlLk6GJQsqaUBKTNV-3">
          <mxGeometry relative="1" as="geometry">
            <Array as="points">
              <mxPoint x="400" y="250" />
              <mxPoint x="400" y="100" />
            </Array>
          </mxGeometry>
        </mxCell>
        <mxCell id="_507XFUVvniMtryG3IeK-7" value="是，重新登录&lt;br&gt;（返回code=0003）" style="edgeLabel;html=1;align=center;verticalAlign=middle;resizable=0;points=[];" vertex="1" connectable="0" parent="_507XFUVvniMtryG3IeK-6">
          <mxGeometry x="-0.2505" y="1" relative="1" as="geometry">
            <mxPoint x="21" y="-34" as="offset" />
          </mxGeometry>
        </mxCell>
        <mxCell id="_507XFUVvniMtryG3IeK-12" style="edgeStyle=orthogonalEdgeStyle;rounded=0;orthogonalLoop=1;jettySize=auto;html=1;" edge="1" parent="WIyWlLk6GJQsqaUBKTNV-1" source="_507XFUVvniMtryG3IeK-4" target="_507XFUVvniMtryG3IeK-8">
          <mxGeometry relative="1" as="geometry" />
        </mxCell>
        <mxCell id="_507XFUVvniMtryG3IeK-15" value="否" style="edgeLabel;html=1;align=center;verticalAlign=middle;resizable=0;points=[];" vertex="1" connectable="0" parent="_507XFUVvniMtryG3IeK-12">
          <mxGeometry x="0.28" y="2" relative="1" as="geometry">
            <mxPoint as="offset" />
          </mxGeometry>
        </mxCell>
        <mxCell id="_507XFUVvniMtryG3IeK-4" value="缓存是否失效" style="strokeWidth=2;html=1;shape=mxgraph.flowchart.decision;whiteSpace=wrap;" vertex="1" parent="WIyWlLk6GJQsqaUBKTNV-1">
          <mxGeometry x="257.5" y="220" width="85" height="60" as="geometry" />
        </mxCell>
        <mxCell id="_507XFUVvniMtryG3IeK-9" style="edgeStyle=orthogonalEdgeStyle;rounded=0;orthogonalLoop=1;jettySize=auto;html=1;entryX=0;entryY=0.5;entryDx=0;entryDy=0;" edge="1" parent="WIyWlLk6GJQsqaUBKTNV-1" source="_507XFUVvniMtryG3IeK-8" target="WIyWlLk6GJQsqaUBKTNV-12">
          <mxGeometry relative="1" as="geometry" />
        </mxCell>
        <mxCell id="_507XFUVvniMtryG3IeK-16" value="是" style="edgeLabel;html=1;align=center;verticalAlign=middle;resizable=0;points=[];" vertex="1" connectable="0" parent="_507XFUVvniMtryG3IeK-9">
          <mxGeometry x="0.32" y="-1" relative="1" as="geometry">
            <mxPoint x="-6" y="-1" as="offset" />
          </mxGeometry>
        </mxCell>
        <mxCell id="_507XFUVvniMtryG3IeK-18" style="edgeStyle=orthogonalEdgeStyle;rounded=0;orthogonalLoop=1;jettySize=auto;html=1;entryX=0.5;entryY=0;entryDx=0;entryDy=0;" edge="1" parent="WIyWlLk6GJQsqaUBKTNV-1" source="_507XFUVvniMtryG3IeK-8" target="_507XFUVvniMtryG3IeK-10">
          <mxGeometry relative="1" as="geometry" />
        </mxCell>
        <mxCell id="_507XFUVvniMtryG3IeK-8" value="accesstoken&lt;br&gt;是否失效" style="strokeWidth=2;html=1;shape=mxgraph.flowchart.decision;whiteSpace=wrap;" vertex="1" parent="WIyWlLk6GJQsqaUBKTNV-1">
          <mxGeometry x="257.5" y="310" width="85" height="60" as="geometry" />
        </mxCell>
        <mxCell id="_507XFUVvniMtryG3IeK-20" style="edgeStyle=orthogonalEdgeStyle;rounded=0;orthogonalLoop=1;jettySize=auto;html=1;" edge="1" parent="WIyWlLk6GJQsqaUBKTNV-1" source="_507XFUVvniMtryG3IeK-10" target="_507XFUVvniMtryG3IeK-11">
          <mxGeometry relative="1" as="geometry" />
        </mxCell>
        <mxCell id="_507XFUVvniMtryG3IeK-10" value="获取用户accesstoken" style="rounded=1;whiteSpace=wrap;html=1;fontSize=12;glass=0;strokeWidth=1;shadow=0;" vertex="1" parent="WIyWlLk6GJQsqaUBKTNV-1">
          <mxGeometry x="240" y="390" width="120" height="40" as="geometry" />
        </mxCell>
        <mxCell id="_507XFUVvniMtryG3IeK-27" style="edgeStyle=orthogonalEdgeStyle;rounded=0;orthogonalLoop=1;jettySize=auto;html=1;" edge="1" parent="WIyWlLk6GJQsqaUBKTNV-1" source="_507XFUVvniMtryG3IeK-11" target="_507XFUVvniMtryG3IeK-26">
          <mxGeometry relative="1" as="geometry" />
        </mxCell>
        <mxCell id="_507XFUVvniMtryG3IeK-11" value="业务处理" style="rounded=1;whiteSpace=wrap;html=1;fontSize=12;glass=0;strokeWidth=1;shadow=0;" vertex="1" parent="WIyWlLk6GJQsqaUBKTNV-1">
          <mxGeometry x="240" y="460" width="120" height="40" as="geometry" />
        </mxCell>
        <mxCell id="_507XFUVvniMtryG3IeK-23" style="edgeStyle=orthogonalEdgeStyle;rounded=0;orthogonalLoop=1;jettySize=auto;html=1;" edge="1" parent="WIyWlLk6GJQsqaUBKTNV-1" source="_507XFUVvniMtryG3IeK-21" target="_507XFUVvniMtryG3IeK-10">
          <mxGeometry relative="1" as="geometry" />
        </mxCell>
        <mxCell id="_507XFUVvniMtryG3IeK-24" style="edgeStyle=orthogonalEdgeStyle;rounded=0;orthogonalLoop=1;jettySize=auto;html=1;entryX=1;entryY=0.5;entryDx=0;entryDy=0;exitX=1;exitY=0.5;exitDx=0;exitDy=0;exitPerimeter=0;" edge="1" parent="WIyWlLk6GJQsqaUBKTNV-1" source="_507XFUVvniMtryG3IeK-21" target="WIyWlLk6GJQsqaUBKTNV-3">
          <mxGeometry relative="1" as="geometry" />
        </mxCell>
        <mxCell id="_507XFUVvniMtryG3IeK-25" value="成功，重新登录&lt;br style=&quot;border-color: var(--border-color);&quot;&gt;（返回code=0003）" style="edgeLabel;html=1;align=center;verticalAlign=middle;resizable=0;points=[];" vertex="1" connectable="0" parent="_507XFUVvniMtryG3IeK-24">
          <mxGeometry x="-0.1768" y="1" relative="1" as="geometry">
            <mxPoint x="2" y="40" as="offset" />
          </mxGeometry>
        </mxCell>
        <mxCell id="_507XFUVvniMtryG3IeK-21" value="是否成功" style="strokeWidth=2;html=1;shape=mxgraph.flowchart.decision;whiteSpace=wrap;" vertex="1" parent="WIyWlLk6GJQsqaUBKTNV-1">
          <mxGeometry x="414" y="385" width="86" height="50" as="geometry" />
        </mxCell>
        <mxCell id="_507XFUVvniMtryG3IeK-26" value="结束" style="rounded=1;whiteSpace=wrap;html=1;fontSize=12;glass=0;strokeWidth=1;shadow=0;" vertex="1" parent="WIyWlLk6GJQsqaUBKTNV-1">
          <mxGeometry x="240" y="530" width="120" height="40" as="geometry" />
        </mxCell>
      </root>
    </mxGraphModel>
  </diagram>
</mxfile>
